<?xml version="1.0" encoding="UTF-8" standalone="no"?>
<!-- Created with Inkscape (http://www.inkscape.org/) -->

<svg
   xmlns:dc="http://purl.org/dc/elements/1.1/"
   xmlns:cc="http://creativecommons.org/ns#"
   xmlns:rdf="http://www.w3.org/1999/02/22-rdf-syntax-ns#"
   xmlns:svg="http://www.w3.org/2000/svg"
   xmlns="http://www.w3.org/2000/svg"
   xmlns:sodipodi="http://sodipodi.sourceforge.net/DTD/sodipodi-0.dtd"
   xmlns:inkscape="http://www.inkscape.org/namespaces/inkscape"
   inkscape:export-ydpi="96"
   inkscape:export-xdpi="96"
   sodipodi:docname="logo_text_white.svg"
   inkscape:version="0.92.3 (2405546, 2018-03-11)"
   id="svg8"
   version="1.1"
   viewBox="0 0 758.24709 120.4204"
   height="455.1322"
   width="1179.6411">
  <sodipodi:namedview
     inkscape:window-maximized="1"
     inkscape:window-y="-11"
     inkscape:window-x="83"
     inkscape:window-height="1966"
     inkscape:window-width="2906"
     showborder="true"
     showgrid="false"
     inkscape:current-layer="layer1"
     inkscape:document-units="mm"
     inkscape:cy="504.32126"
     inkscape:cx="740.75246"
     inkscape:zoom="1"
     inkscape:pageshadow="2"
     inkscape:pageopacity="0"
     borderopacity="1.0"
     bordercolor="#666666"
     pagecolor="#ffffff"
     id="base"
     inkscape:measure-start="-313.955,-352.139"
     inkscape:measure-end="-131.522,-373.352"
     inkscape:snap-nodes="false"
     inkscape:snap-others="false"
     inkscape:snap-global="false"
     inkscape:pagecheckerboard="true"
     units="px"
     fit-margin-top="0"
     fit-margin-left="0"
     fit-margin-right="0"
     fit-margin-bottom="0" />
  <defs
     id="defs2">
    <filter
       inkscape:collect="always"
       style="color-interpolation-filters:sRGB"
       id="filter863"
       x="-0.077411393"
       width="1.1548228"
       y="-0.12633699"
       height="1.252674">
      <feGaussianBlur
         inkscape:collect="always"
         stdDeviation="1.8529792"
         id="feGaussianBlur865" />
    </filter>
  </defs>
  <metadata
     id="metadata5">
    <rdf:RDF>
      <cc:Work
         rdf:about="">
        <dc:format>image/svg+xml</dc:format>
        <dc:type
           rdf:resource="http://purl.org/dc/dcmitype/StillImage" />
        <dc:title />
      </cc:Work>
    </rdf:RDF>
  </metadata>
  <g
     id="layer1"
     inkscape:groupmode="layer"
     inkscape:label="Layer 1"
     transform="translate(137.00442,-92.790603)">
    <path
       inkscape:connector-curvature="0"
       id="path815"
       d="m -53.861345,8.2263712 a 81.642859,81.642859 0 0 0 -81.643075,81.6425608 81.642859,81.642859 0 0 0 24.65637,58.376278 l -0.0899,0.092 a 57.214462,57.214462 0 0 1 17.364311,28.64889 l 9.755478,36.10994 h 59.913137 l 9.009786,-33.34732 A 57.214462,57.214462 0 0 1 1.6851353,149.62963 l -0.040824,-0.0579 A 81.642859,81.642859 0 0 0 27.781215,89.868932 81.642859,81.642859 0 0 0 -53.861345,8.2263712 Z"
       style="fill:#ffffff;fill-opacity:0;stroke:#ffffff;stroke-width:3;stroke-miterlimit:4;stroke-dasharray:none" />
    <path
       style="fill:none;stroke:#ffffff;stroke-width:2;stroke-linecap:butt;stroke-linejoin:miter;stroke-miterlimit:4;stroke-dasharray:none;stroke-opacity:1"
       d="m -71.093694,212.81009 -4.490128,-51.2623 -29.560008,-74.087109 h 15.715448"
       id="path4323"
       inkscape:connector-curvature="0" />
    <path
       style="fill:none;stroke:#ffffff;stroke-width:2;stroke-linecap:butt;stroke-linejoin:miter;stroke-miterlimit:4;stroke-dasharray:none;stroke-opacity:1"
       d="m -36.823598,212.81009 4.49013,-51.2623 29.5600064,-74.087109 H -18.48891"
       id="path4327"
       inkscape:connector-curvature="0" />
    <path
       style="fill:#ffffff;stroke:#ffffff;stroke-width:1.02652693;stroke-miterlimit:4;stroke-dasharray:none"
       d="m -97.966051,213.35514 c -3.284389,0 -5.928499,2.71739 -5.928499,6.09279 v 62.54653 c 0,3.3754 2.64411,6.09279 5.928499,6.09279 h 88.2084467 c 3.2843873,0 5.9284969,-2.71739 5.9284969,-6.09279 v -62.54653 c 0,-3.3754 -2.6441096,-6.09279 -5.9284969,-6.09279 z m 51.901917,6.38717 8.003636,3.40651 -2.52507,8.91138 a 22.513937,23.137835 0 0 1 4.877832,5.01839 l 8.674397,-2.59646 3.314929,8.22514 -7.922031,4.46929 a 22.513937,23.137835 0 0 1 -0.0014,7.08814 l 7.923685,4.47013 -3.315205,8.22487 -8.670262,-2.59505 a 22.513937,23.137835 0 0 1 -4.883621,5.013 l 2.526449,8.91507 -8.003361,3.40707 -4.348502,-8.14185 a 22.513937,23.137835 0 0 1 -6.897281,-10e-4 l -4.349054,8.14298 -8.003636,-3.40678 2.525347,-8.91054 a 22.513937,23.137835 0 0 1 -4.878109,-5.01895 l -8.674672,2.59646 -3.314929,-8.22515 7.922031,-4.469 a 22.513937,23.137835 0 0 1 0.0014,-7.08814 l -7.923409,-4.47013 3.314929,-8.22543 8.670538,2.59504 a 22.513937,23.137835 0 0 1 4.883345,-5.01272 l -2.526449,-8.91506 8.003361,-3.40679 4.348502,8.14156 a 22.513937,23.137835 0 0 1 6.897281,0.001 z m -7.797418,15.77568 a 14.793462,15.203413 0 0 0 -7.875991,2.34089 l 4.645975,4.77501 a 8.5128617,8.7487671 0 0 1 3.230016,-0.6613 8.5128617,8.7487671 0 0 1 3.232221,0.65904 l 4.635499,-4.76425 a 14.793462,15.203413 0 0 0 -7.86772,-2.34939 z m 12.515073,7.1091 -4.645699,4.77444 a 8.5128617,8.7487671 0 0 1 0.643466,3.31952 8.5128617,8.7487671 0 0 1 -0.641536,3.3218 l 4.636049,4.76452 a 14.793462,15.203413 0 0 0 2.286044,-8.08603 14.793462,15.203413 0 0 0 -2.278324,-8.09425 z m -25.02215,0.008 a 14.793462,15.203413 0 0 0 -2.286321,8.08575 14.793462,15.203413 0 0 0 2.277774,8.09424 l 4.64625,-4.77472 a 8.5128617,8.7487671 0 0 1 -0.643467,-3.31981 8.5128617,8.7487671 0 0 1 0.641538,-3.32151 z m 12.507077,4.67584 a 3.3177448,3.409685 0 0 0 -3.317962,3.40962 3.3177448,3.409685 0 0 0 3.317962,3.40991 3.3177448,3.409685 0 0 0 3.317963,-3.40991 3.3177448,3.409685 0 0 0 -3.317963,-3.40962 z m 3.230016,11.49707 a 8.5128617,8.7487671 0 0 1 -3.230016,0.6613 8.5128617,8.7487671 0 0 1 -3.232222,-0.65931 l -4.636049,4.76451 a 14.793462,15.203413 0 0 0 7.868271,2.34968 14.793462,15.203413 0 0 0 7.876267,-2.34118 z"
       id="rect5135"
       inkscape:connector-curvature="0" />
    <text
       xml:space="preserve"
       style="font-style:normal;font-weight:normal;font-size:117.86087036px;line-height:1.25;font-family:sans-serif;letter-spacing:0px;word-spacing:0px;fill:#ffffff;fill-opacity:1;stroke:#ffffff;stroke-width:2.94652176"
       x="84.222984"
       y="124.44195"
       id="text35"><tspan
         sodipodi:role="line"
         x="84.222984"
         y="124.44195"
         style="font-style:normal;font-variant:normal;font-weight:bold;font-stretch:normal;font-family:'Liberation Sans';-inkscape-font-specification:'Liberation Sans Bold';fill:#ffffff;stroke:#ffffff;stroke-width:2.94652176"
         id="tspan37">Koneoppi</tspan></text>
    <flowRoot
       xml:space="preserve"
       id="flowRoot43"
       style="font-style:normal;font-weight:normal;font-size:40px;line-height:1.25;font-family:sans-serif;letter-spacing:0px;word-spacing:0px;fill:#000000;fill-opacity:1;stroke:none"><flowRegion
         id="flowRegion45"><rect
           id="rect47"
           width="300"
           height="224"
           x="344"
           y="690.51971" /></flowRegion><flowPara
         id="flowPara49" /></flowRoot>    <text
       xml:space="preserve"
       style="font-style:normal;font-weight:normal;font-size:135.89318848px;line-height:1.25;font-family:sans-serif;letter-spacing:0px;word-spacing:0px;fill:#ffffff;fill-opacity:1;stroke:#ffffff;stroke-width:3.39732957"
       x="51.378265"
       y="283.97464"
       id="text53"
       transform="scale(1.0490582,0.953236)"><tspan
         sodipodi:role="line"
         id="tspan51"
         x="51.378265"
         y="283.97464"
         style="font-style:normal;font-variant:normal;font-weight:normal;font-stretch:normal;font-family:'Liberation Sans';-inkscape-font-specification:'Liberation Sans';fill:#ffffff;stroke:#ffffff;stroke-width:3.39732957">Analytics</tspan></text>
    <text
       xml:space="preserve"
       style="font-style:normal;font-weight:normal;font-size:46.54036713px;line-height:1.25;font-family:sans-serif;letter-spacing:0px;word-spacing:0px;fill:#ffffff;fill-opacity:1;stroke:#ffffff;stroke-width:1.16350913;filter:url(#filter863)"
       x="-87.626488"
       y="105.1889"
       id="text853"><tspan
         sodipodi:role="line"
         id="tspan851"
         x="-87.626488"
         y="105.1889"
         style="fill:#ffffff;stroke:#ffffff;stroke-width:1.16350913">KO</tspan></text>
  </g>
</svg>
